#!OML:ASF E:\Steps\Project 1\Capture day 1\Session 2\Subject.ASF
:FULLY-SPECIFIED
:DEGREES
283
root 4.05793 18.0344 16.9562 -153.537 -4.42778 176.902
lowerback -23.8026 -3.00698 -6.93352
upperback 1.16278 -2.11578 -0.560012
thorax 15.0421 -1.55075 2.53704
lowerneck -0.0188939 -1.45887 -1.76502
upperneck 20.6962 -4.43931 3.3305
head 6.38525 -2.73197 1.04032
rclavicle -5.96354e-016 -1.39149e-014
rhumerus -40.0638 -11.4033 -83.0895
rradius 41.145
rwrist -3.37088
rhand -12.3353 -56.5123
rfingers 7.12502
rthumb 13.7339 -86.0391
lclavicle -5.96354e-016 -1.39149e-014
lhumerus -28.7011 6.65733 77.6382
lradius 23.982
lwrist -4.22447
lhand -22.4768 -13.146
lfingers 7.12502
lthumb 3.94831 16.7971
rfemur -24.7612 4.90993 19.8471
rtibia 6.50364
rfoot -15.1484 -3.50035
rtoes -13.4011
lfemur -28.2525 -11.1204 -20.9906
ltibia 12.3096
lfoot -5.97389 -2.40439
ltoes -12.3683
284
root 4.06545 18.0351 16.9515 -153.625 -4.54976 176.915
lowerback -23.7549 -3.03806 -6.9629
upperback 1.21403 -2.14746 -0.548181
thorax 15.0821 -1.56804 2.5561
lowerneck -0.17622 -1.47937 -1.7308
upperneck 20.6965 -4.42902 3.23086
head 6.40952 -2.72232 1.00123
rclavicle -1.04362e-014 4.77083e-015
rhumerus -39.9409 -11.1454 -83.162
rradius 41.0831
rwrist -3.43506
rhand -12.1396 -56.242
rfingers 7.12502
rthumb 13.9225 -85.756
lclavicle -1.04362e-014 4.77083e-015
lhumerus -28.5374 6.40231 77.7361
lradius 24.3407
lwrist -3.98709
lhand -22.521 -13.2888
lfingers 7.12502
lthumb 3.90563 16.6551
rfemur -24.5855 4.87361 19.9429
rtibia 6.41955
rfoot -15.1803 -3.59317
rtoes -13.6305
lfemur -28.0109 -10.9186 -20.9928
ltibia 12.0478
lfoot -5.93607 -2.60534
ltoes -13.4647
285
root 4.06936 18.0344 16.9471 -153.634 -4.59168 176.899
lowerback -23.6875 -3.05287 -6.99688
upperback 1.16664 -2.16903 -0.540611
thorax 14.99 -1.57889 2.57947
lowerneck -0.440692 -1.41609 -1.7571
upperneck 20.9296 -4.33188 3.11366
head 6.52534 -2.68346 0.967137
rclavicle 9.64106e-015 7.15625e-015
rhumerus -39.9491 -10.8604 -83.1801
rradius 41.0582
rwrist -3.51647
rhand -11.7875 -56.5802
rfingers 7.12502
rthumb 14.2618 -86.0705
lclavicle 9.64106e-015 7.15625e-015
lhumerus -28.5124 6.26308 77.8167
lradius 24.7784
lwrist -3.79343
lhand -22.5202 -13.1672
lfingers 7.12502
lthumb 3.90645 16.7767
rfemur -24.5223 4.77162 19.983
rtibia 6.37501
rfoot -15.256 -3.51399
rtoes -13.9426
lfemur -27.8561 -10.8152 -21.0237
ltibia 11.8033
lfoot -5.89585 -2.66777
ltoes -13.7179
286
root 4.07118 18.0331 16.9436 -153.613 -4.62327 176.877
lowerback -23.4864 -3.04793 -6.98182
upperback 0.999015 -2.19923 -0.564106
thorax 14.6732 -1.58398 2.54288
lowerneck -0.398413 -1.19415 -1.72924
upperneck 20.9232 -3.99308 2.9825
head 6.50331 -2.52815 0.941355
rclavicle -2.5842e-015 -3.65764e-014
rhumerus -40.1972 -10.6119 -83.2148
rradius 41.1506
rwrist -3.52932
rhand -11.6175 -57.1707
rfingers 7.12502
rthumb 14.4256 -86.6493
lclavicle -2.5842e-015 -3.65764e-014
lhumerus -28.7303 5.88018 77.9169
lradius 25.3762
lwrist -3.49659
lhand -22.7495 -13.0266
lfingers 7.12502
lthumb 3.68497 16.9213
rfemur -24.5122 4.83525 19.9515
rtibia 6.35765
rfoot -15.2571 -3.63862
rtoes -13.7719
lfemur -27.7722 -10.8684 -21.0231
ltibia 11.6116
lfoot -5.82332 -2.66017
ltoes -12.938
287
root 4.07317 18.0326 16.94 -153.637 -4.71006 176.851
lowerback -23.7268 -3.07917 -7.02426
upperback 1.17021 -2.19217 -0.548605
thorax 15.0204 -1.59198 2.57578
lowerneck -0.594241 -1.28001 -1.8462
upperneck 20.8853 -4.0971 3.10472
head 6.53219 -2.5657 0.991976
rclavicle -6.36111e-015 -3.57812e-015
rhumerus -39.8719 -10.481 -83.2549
rradius 41.1855
rwrist -3.49229
rhand -11.6097 -57.1086
rfingers 7.12502
rthumb 14.4331 -86.5867
lclavicle -6.36111e-015 -3.57812e-015
lhumerus -28.3241 5.71468 78.1354
lradius 25.8212
lwrist -3.43311
lhand -23.199 -12.889
lfingers 7.12502
lthumb 3.25095 17.066
rfemur -24.5562 5.16965 19.8757
rtibia 6.58673
rfoot -15.4155 -4.10257
rtoes -13.7873
lfemur -27.6165 -10.8957 -21.0368
ltibia 11.3883
lfoot -5.72016 -2.71878
ltoes -12.6472
288
root 4.07483 18.0314 16.9354 -153.632 -4.80405 176.821
lowerback -23.755 -3.02169 -6.96749
upperback 1.17241 -2.1213 -0.622799
thorax 15.0257 -1.55273 2.48255
lowerneck -0.390832 -1.32433 -1.75698
upperneck 20.5177 -4.10174 3.09186
head 6.37752 -2.55158 0.980096
rclavicle -1.91827e-014 -2.62396e-014
rhumerus -39.7974 -10.494 -83.2854
rradius 41.099
rwrist -3.61817
rhand -11.6995 -56.5424
rfingers 7.12502
rthumb 14.3465 -86.0266
lclavicle -1.91827e-014 -2.62396e-014
lhumerus -28.1265 5.48096 78.1957
lradius 26.2884
lwrist -3.34093
lhand -23.342 -12.965
lfingers 7.12502
lthumb 3.11282 16.992
rfemur -24.7775 5.74896 19.7425
rtibia 7.14057
rfoot -15.8301 -4.80885
rtoes -13.8033
lfemur -27.4624 -10.9145 -21.0603
ltibia 11.1293
lfoot -5.65134 -2.73979
ltoes -13.0515
289
root 4.07691 18.03 16.9307 -153.574 -4.86095 176.803
lowerback -23.6421 -2.94932 -6.94264
upperback 1.02482 -2.05367 -0.662202
thorax 14.7723 -1.51405 2.4547
lowerneck -0.169896 -1.28103 -1.61221
upperneck 20.3814 -4.00528 2.91113
head 6.2875 -2.5089 0.908618
rclavicle 0 5.96354e-015
rhumerus -39.9195 -10.6791 -83.0894
rradius 40.9091
rwrist -3.46678
rhand -11.4998 -56.2056
rfingers 7.12502
rthumb 14.539 -85.6761
lclavicle 0 5.96354e-015
lhumerus -28.2029 5.12083 78.2801
lradius 26.8738
lwrist -2.92845
lhand -23.1689 -13.4309
lfingers 7.12502
lthumb 3.27998 16.5236
rfemur -24.7862 5.70522 19.7467
rtibia 7.09413
rfoot -15.8678 -4.86847
rtoes -13.7256
lfemur -27.4118 -10.9723 -21.0487
ltibia 10.9511
lfoot -5.69658 -2.66372
ltoes -13.068
290
root 4.07929 18.0282 16.9276 -153.502 -4.90034 176.778
lowerback -23.8989 -2.95234 -6.98424
upperback 1.11902 -2.01781 -0.638711
thorax 15.0331 -1.5082 2.50878
lowerneck -0.398555 -1.25961 -1.57753
upperneck 20.4408 -3.92877 2.75842
head 6.34051 -2.46964 0.855097
rclavicle 2.55438e-014 3.10104e-014
rhumerus -39.6405 -10.8561 -82.9038
rradius 40.7647
rwrist -3.05235
rhand -11.3015 -56.2508
rfingers 7.12502
rthumb 14.73 -85.7074
lclavicle 2.55438e-014 3.10104e-014
lhumerus -27.8327 5.12455 78.4187
lradius 27.2545
lwrist -2.87712
lhand -23.2166 -13.8685
lfingers 7.12502
lthumb 3.23397 16.0867
rfemur -24.2198 4.42534 20.0207
rtibia 5.77716
rfoot -15.1172 -3.62465
rtoes -13.9238
lfemur -27.4075 -10.9555 -21.0608
ltibia 10.8135
lfoot -5.64616 -2.74474
ltoes -12.4327
291
root 4.08212 18.0279 16.9271 -153.458 -4.97899 176.727
lowerback -23.9438 -2.97872 -7.07479
upperback 1.12159 -2.02731 -0.602636
thorax 15.0686 -1.52229 2.59733
lowerneck -0.506543 -1.19796 -1.64545
upperneck 20.4037 -3.81698 2.7765
head 6.34579 -2.41103 0.877939
rclavicle 2.41523e-014 1.70955e-014
rhumerus -39.5198 -10.826 -82.7938
rradius 40.6164
rwrist -2.79956
rhand -11.518 -56.3888
rfingers 7.12502
rthumb 14.5214 -85.8606
lclavicle 2.41523e-014 1.70955e-014
lhumerus -27.6167 5.36762 78.5183
lradius 27.5868
lwrist -3.20437
lhand -23.5547 -13.9747
lfingers 7.12502
lthumb 2.90744 15.9852
rfemur -24.3266 5.05075 19.8453
rtibia 5.99793
rfoot -15.2946 -4.32988
rtoes -14.0482
lfemur -27.3886 -10.7964 -21.1404
ltibia 10.675
lfoot -5.45801 -3.0706
ltoes -11.284
292
root 4.08517 18.0289 16.9267 -153.466 -5.14564 176.654
lowerback -23.6534 -2.94216 -7.08947
upperback 0.972296 -2.00914 -0.65378
thorax 14.7174 -1.50528 2.56521
lowerneck -0.313729 -1.08228 -1.67732
upperneck 20.1669 -3.65359 2.95025
head 6.23605 -2.31867 0.953089
rclavicle -5.36719e-015 -3.57812e-015
rhumerus -39.6693 -10.9782 -82.6792
rradius 40.3964
rwrist -2.57421
rhand -11.7782 -56.6088
rfingers 7.12502
rthumb 14.2707 -86.0984
lclavicle -5.36719e-015 -3.57812e-015
lhumerus -27.7484 5.10386 78.5889
lradius 28.1549
lwrist -2.94963
lhand -23.6823 -13.8481
lfingers 7.12502
lthumb 2.78418 16.1135
rfemur -24.1327 4.95656 19.8274
rtibia 5.73862
rfoot -15.262 -4.4543
rtoes -14.4671
lfemur -27.3746 -10.6767 -21.2351
ltibia 10.6626
lfoot -5.28344 -3.45555
ltoes -10.407
